solid OpenSCAD_Model
  facet normal 0.5 0.866025 -0
    outer loop
      vertex 3.05 1.76092 0
      vertex 0 3.52184 20
      vertex 3.05 1.76092 20
    endloop
  endfacet
  facet normal 0.5 0.866025 0
    outer loop
      vertex 0 3.52184 20
      vertex 3.05 1.76092 0
      vertex 0 3.52184 0
    endloop
  endfacet
  facet normal -1 0 0
    outer loop
      vertex -3.05 -1.76092 0
      vertex -3.05 1.76092 20
      vertex -3.05 1.76092 0
    endloop
  endfacet
  facet normal -1 -0 0
    outer loop
      vertex -3.05 1.76092 20
      vertex -3.05 -1.76092 0
      vertex -3.05 -1.76092 20
    endloop
  endfacet
  facet normal -0.5 0.866025 0
    outer loop
      vertex 0 3.52184 0
      vertex -3.05 1.76092 20
      vertex 0 3.52184 20
    endloop
  endfacet
  facet normal -0.5 0.866025 0
    outer loop
      vertex -3.05 1.76092 20
      vertex 0 3.52184 0
      vertex -3.05 1.76092 0
    endloop
  endfacet
  facet normal 0 0 1
    outer loop
      vertex 3.05 1.76092 20
      vertex 1.62 0 20
      vertex 3.05 -1.76092 20
    endloop
  endfacet
  facet normal 0 0 1
    outer loop
      vertex 3.05 1.76092 20
      vertex 1.61501 0.127103 20
      vertex 1.62 0 20
    endloop
  endfacet
  facet normal 0 0 1
    outer loop
      vertex 3.05 1.76092 20
      vertex 1.60005 0.253424 20
      vertex 1.61501 0.127103 20
    endloop
  endfacet
  facet normal 0 0 1
    outer loop
      vertex 3.05 1.76092 20
      vertex 1.57524 0.378181 20
      vertex 1.60005 0.253424 20
    endloop
  endfacet
  facet normal 0 0 1
    outer loop
      vertex 3.05 1.76092 20
      vertex 1.54071 0.500607 20
      vertex 1.57524 0.378181 20
    endloop
  endfacet
  facet normal 0 0 1
    outer loop
      vertex 3.05 1.76092 20
      vertex 1.49668 0.619946 20
      vertex 1.54071 0.500607 20
    endloop
  endfacet
  facet normal 0 0 1
    outer loop
      vertex 3.05 1.76092 20
      vertex 1.44343 0.735464 20
      vertex 1.49668 0.619946 20
    endloop
  endfacet
  facet normal 0 0 1
    outer loop
      vertex 3.05 1.76092 20
      vertex 1.38128 0.846447 20
      vertex 1.44343 0.735464 20
    endloop
  endfacet
  facet normal 0 0 1
    outer loop
      vertex 3.05 1.76092 20
      vertex 1.31061 0.952211 20
      vertex 1.38128 0.846447 20
    endloop
  endfacet
  facet normal 0 0 1
    outer loop
      vertex 3.05 1.76092 20
      vertex 1.23186 1.0521 20
      vertex 1.31061 0.952211 20
    endloop
  endfacet
  facet normal 0 0 1
    outer loop
      vertex 3.05 1.76092 20
      vertex 1.14551 1.14551 20
      vertex 1.23186 1.0521 20
    endloop
  endfacet
  facet normal 0 0 1
    outer loop
      vertex 3.05 1.76092 20
      vertex 1.0521 1.23186 20
      vertex 1.14551 1.14551 20
    endloop
  endfacet
  facet normal 0 0 1
    outer loop
      vertex 3.05 1.76092 20
      vertex 0.952211 1.31061 20
      vertex 1.0521 1.23186 20
    endloop
  endfacet
  facet normal 0 0 1
    outer loop
      vertex 3.05 1.76092 20
      vertex 0.846447 1.38128 20
      vertex 0.952211 1.31061 20
    endloop
  endfacet
  facet normal 0 0 1
    outer loop
      vertex 0 3.52184 20
      vertex 0.846447 1.38128 20
      vertex 3.05 1.76092 20
    endloop
  endfacet
  facet normal 0 0 1
    outer loop
      vertex 0.846447 1.38128 20
      vertex 0 3.52184 20
      vertex 0.735464 1.44343 20
    endloop
  endfacet
  facet normal 0 0 1
    outer loop
      vertex 0.735464 1.44343 20
      vertex 0 3.52184 20
      vertex 0.619946 1.49668 20
    endloop
  endfacet
  facet normal 0 0 1
    outer loop
      vertex 0.619946 1.49668 20
      vertex 0 3.52184 20
      vertex 0.500607 1.54071 20
    endloop
  endfacet
  facet normal 0 0 1
    outer loop
      vertex 0.500607 1.54071 20
      vertex 0 3.52184 20
      vertex 0.378181 1.57524 20
    endloop
  endfacet
  facet normal 0 0 1
    outer loop
      vertex 0.378181 1.57524 20
      vertex 0 3.52184 20
      vertex 0.253424 1.60005 20
    endloop
  endfacet
  facet normal 0 0 1
    outer loop
      vertex 0.253424 1.60005 20
      vertex 0 3.52184 20
      vertex 0.127103 1.61501 20
    endloop
  endfacet
  facet normal 0 0 1
    outer loop
      vertex 0 3.52184 20
      vertex 0 1.62 20
      vertex 0.127103 1.61501 20
    endloop
  endfacet
  facet normal 0 0 1
    outer loop
      vertex 0 3.52184 20
      vertex -0.127103 1.61501 20
      vertex 0 1.62 20
    endloop
  endfacet
  facet normal 0 0 1
    outer loop
      vertex 0 3.52184 20
      vertex -0.253424 1.60005 20
      vertex -0.127103 1.61501 20
    endloop
  endfacet
  facet normal 0 0 1
    outer loop
      vertex 0 3.52184 20
      vertex -0.378181 1.57524 20
      vertex -0.253424 1.60005 20
    endloop
  endfacet
  facet normal 0 0 1
    outer loop
      vertex 0 3.52184 20
      vertex -0.500607 1.54071 20
      vertex -0.378181 1.57524 20
    endloop
  endfacet
  facet normal 0 0 1
    outer loop
      vertex 0 3.52184 20
      vertex -0.619946 1.49668 20
      vertex -0.500607 1.54071 20
    endloop
  endfacet
  facet normal 0 0 1
    outer loop
      vertex 0 3.52184 20
      vertex -0.735464 1.44343 20
      vertex -0.619946 1.49668 20
    endloop
  endfacet
  facet normal 0 0 1
    outer loop
      vertex 0 3.52184 20
      vertex -0.846447 1.38128 20
      vertex -0.735464 1.44343 20
    endloop
  endfacet
  facet normal -0 0 1
    outer loop
      vertex -3.05 1.76092 20
      vertex -0.846447 1.38128 20
      vertex 0 3.52184 20
    endloop
  endfacet
  facet normal 0 0 1
    outer loop
      vertex -0.846447 1.38128 20
      vertex -3.05 1.76092 20
      vertex -0.952211 1.31061 20
    endloop
  endfacet
  facet normal 0 0 1
    outer loop
      vertex -0.952211 1.31061 20
      vertex -3.05 1.76092 20
      vertex -1.0521 1.23186 20
    endloop
  endfacet
  facet normal 0 0 1
    outer loop
      vertex -1.0521 1.23186 20
      vertex -3.05 1.76092 20
      vertex -1.14551 1.14551 20
    endloop
  endfacet
  facet normal 0 0 1
    outer loop
      vertex -1.14551 1.14551 20
      vertex -3.05 1.76092 20
      vertex -1.23186 1.0521 20
    endloop
  endfacet
  facet normal 0 0 1
    outer loop
      vertex -1.23186 1.0521 20
      vertex -3.05 1.76092 20
      vertex -1.31061 0.952211 20
    endloop
  endfacet
  facet normal 0 0 1
    outer loop
      vertex -1.31061 0.952211 20
      vertex -3.05 1.76092 20
      vertex -1.38128 0.846447 20
    endloop
  endfacet
  facet normal 0 0 1
    outer loop
      vertex -1.61501 0.127103 20
      vertex -3.05 1.76092 20
      vertex -1.62 0 20
    endloop
  endfacet
  facet normal 0 0 1
    outer loop
      vertex -1.60005 0.253424 20
      vertex -3.05 1.76092 20
      vertex -1.61501 0.127103 20
    endloop
  endfacet
  facet normal 0 0 1
    outer loop
      vertex -1.57524 0.378181 20
      vertex -3.05 1.76092 20
      vertex -1.60005 0.253424 20
    endloop
  endfacet
  facet normal 0 0 1
    outer loop
      vertex -1.54071 0.500607 20
      vertex -3.05 1.76092 20
      vertex -1.57524 0.378181 20
    endloop
  endfacet
  facet normal 0 0 1
    outer loop
      vertex -1.49668 0.619946 20
      vertex -3.05 1.76092 20
      vertex -1.54071 0.500607 20
    endloop
  endfacet
  facet normal 0 0 1
    outer loop
      vertex -1.44343 0.735464 20
      vertex -3.05 1.76092 20
      vertex -1.49668 0.619946 20
    endloop
  endfacet
  facet normal 0 0 1
    outer loop
      vertex -1.38128 0.846447 20
      vertex -3.05 1.76092 20
      vertex -1.44343 0.735464 20
    endloop
  endfacet
  facet normal -0 0 1
    outer loop
      vertex 1.61501 -0.127103 20
      vertex 3.05 -1.76092 20
      vertex 1.62 0 20
    endloop
  endfacet
  facet normal -0 0 1
    outer loop
      vertex 1.60005 -0.253424 20
      vertex 3.05 -1.76092 20
      vertex 1.61501 -0.127103 20
    endloop
  endfacet
  facet normal -0 0 1
    outer loop
      vertex 1.57524 -0.378181 20
      vertex 3.05 -1.76092 20
      vertex 1.60005 -0.253424 20
    endloop
  endfacet
  facet normal -0 0 1
    outer loop
      vertex 1.54071 -0.500607 20
      vertex 3.05 -1.76092 20
      vertex 1.57524 -0.378181 20
    endloop
  endfacet
  facet normal -0 0 1
    outer loop
      vertex 1.49668 -0.619946 20
      vertex 3.05 -1.76092 20
      vertex 1.54071 -0.500607 20
    endloop
  endfacet
  facet normal -0 0 1
    outer loop
      vertex 1.44343 -0.735464 20
      vertex 3.05 -1.76092 20
      vertex 1.49668 -0.619946 20
    endloop
  endfacet
  facet normal -0 0 1
    outer loop
      vertex 1.38128 -0.846447 20
      vertex 3.05 -1.76092 20
      vertex 1.44343 -0.735464 20
    endloop
  endfacet
  facet normal -0 0 1
    outer loop
      vertex 1.31061 -0.952211 20
      vertex 3.05 -1.76092 20
      vertex 1.38128 -0.846447 20
    endloop
  endfacet
  facet normal -0 0 1
    outer loop
      vertex 1.23186 -1.0521 20
      vertex 3.05 -1.76092 20
      vertex 1.31061 -0.952211 20
    endloop
  endfacet
  facet normal -0 0 1
    outer loop
      vertex 1.14551 -1.14551 20
      vertex 3.05 -1.76092 20
      vertex 1.23186 -1.0521 20
    endloop
  endfacet
  facet normal -0 0 1
    outer loop
      vertex 1.0521 -1.23186 20
      vertex 3.05 -1.76092 20
      vertex 1.14551 -1.14551 20
    endloop
  endfacet
  facet normal -0 0 1
    outer loop
      vertex 0.952211 -1.31061 20
      vertex 3.05 -1.76092 20
      vertex 1.0521 -1.23186 20
    endloop
  endfacet
  facet normal -0 0 1
    outer loop
      vertex 0.846447 -1.38128 20
      vertex 3.05 -1.76092 20
      vertex 0.952211 -1.31061 20
    endloop
  endfacet
  facet normal 0 0 1
    outer loop
      vertex 0 -3.52184 20
      vertex 0.846447 -1.38128 20
      vertex 0.735464 -1.44343 20
    endloop
  endfacet
  facet normal 0 0 1
    outer loop
      vertex 0 -3.52184 20
      vertex 0.735464 -1.44343 20
      vertex 0.619946 -1.49668 20
    endloop
  endfacet
  facet normal 0 0 1
    outer loop
      vertex 0 -3.52184 20
      vertex 0.619946 -1.49668 20
      vertex 0.500607 -1.54071 20
    endloop
  endfacet
  facet normal 0 0 1
    outer loop
      vertex 0 -3.52184 20
      vertex 0.500607 -1.54071 20
      vertex 0.378181 -1.57524 20
    endloop
  endfacet
  facet normal 0 0 1
    outer loop
      vertex 0 -3.52184 20
      vertex 0.378181 -1.57524 20
      vertex 0.253424 -1.60005 20
    endloop
  endfacet
  facet normal 0 0 1
    outer loop
      vertex 0 -3.52184 20
      vertex 0.253424 -1.60005 20
      vertex 0.127103 -1.61501 20
    endloop
  endfacet
  facet normal 0 0 1
    outer loop
      vertex 0 -3.52184 20
      vertex 0.127103 -1.61501 20
      vertex 0 -1.62 20
    endloop
  endfacet
  facet normal 0 0 1
    outer loop
      vertex 0.846447 -1.38128 20
      vertex 0 -3.52184 20
      vertex 3.05 -1.76092 20
    endloop
  endfacet
  facet normal 0 0 1
    outer loop
      vertex -0.127103 -1.61501 20
      vertex 0 -3.52184 20
      vertex 0 -1.62 20
    endloop
  endfacet
  facet normal 0 0 1
    outer loop
      vertex -0.253424 -1.60005 20
      vertex 0 -3.52184 20
      vertex -0.127103 -1.61501 20
    endloop
  endfacet
  facet normal 0 0 1
    outer loop
      vertex -0.378181 -1.57524 20
      vertex 0 -3.52184 20
      vertex -0.253424 -1.60005 20
    endloop
  endfacet
  facet normal 0 0 1
    outer loop
      vertex -0.500607 -1.54071 20
      vertex 0 -3.52184 20
      vertex -0.378181 -1.57524 20
    endloop
  endfacet
  facet normal 0 0 1
    outer loop
      vertex -0.619946 -1.49668 20
      vertex 0 -3.52184 20
      vertex -0.500607 -1.54071 20
    endloop
  endfacet
  facet normal 0 0 1
    outer loop
      vertex -0.735464 -1.44343 20
      vertex 0 -3.52184 20
      vertex -0.619946 -1.49668 20
    endloop
  endfacet
  facet normal 0 0 1
    outer loop
      vertex -0.846447 -1.38128 20
      vertex 0 -3.52184 20
      vertex -0.735464 -1.44343 20
    endloop
  endfacet
  facet normal 0 0 1
    outer loop
      vertex -3.05 -1.76092 20
      vertex -0.846447 -1.38128 20
      vertex -0.952211 -1.31061 20
    endloop
  endfacet
  facet normal 0 0 1
    outer loop
      vertex -3.05 -1.76092 20
      vertex -0.952211 -1.31061 20
      vertex -1.0521 -1.23186 20
    endloop
  endfacet
  facet normal 0 0 1
    outer loop
      vertex -3.05 -1.76092 20
      vertex -1.0521 -1.23186 20
      vertex -1.14551 -1.14551 20
    endloop
  endfacet
  facet normal 0 0 1
    outer loop
      vertex -3.05 -1.76092 20
      vertex -1.14551 -1.14551 20
      vertex -1.23186 -1.0521 20
    endloop
  endfacet
  facet normal 0 0 1
    outer loop
      vertex -3.05 -1.76092 20
      vertex -1.23186 -1.0521 20
      vertex -1.31061 -0.952211 20
    endloop
  endfacet
  facet normal 0 0 1
    outer loop
      vertex -3.05 -1.76092 20
      vertex -1.31061 -0.952211 20
      vertex -1.38128 -0.846447 20
    endloop
  endfacet
  facet normal 0 0 1
    outer loop
      vertex -3.05 -1.76092 20
      vertex -1.38128 -0.846447 20
      vertex -1.44343 -0.735464 20
    endloop
  endfacet
  facet normal 0 0 1
    outer loop
      vertex -3.05 -1.76092 20
      vertex -1.62 0 20
      vertex -3.05 1.76092 20
    endloop
  endfacet
  facet normal 0 0 1
    outer loop
      vertex -1.62 0 20
      vertex -3.05 -1.76092 20
      vertex -1.61501 -0.127103 20
    endloop
  endfacet
  facet normal 0 0 1
    outer loop
      vertex -1.61501 -0.127103 20
      vertex -3.05 -1.76092 20
      vertex -1.60005 -0.253424 20
    endloop
  endfacet
  facet normal 0 0 1
    outer loop
      vertex -1.60005 -0.253424 20
      vertex -3.05 -1.76092 20
      vertex -1.57524 -0.378181 20
    endloop
  endfacet
  facet normal 0 0 1
    outer loop
      vertex -1.57524 -0.378181 20
      vertex -3.05 -1.76092 20
      vertex -1.54071 -0.500607 20
    endloop
  endfacet
  facet normal 0 0 1
    outer loop
      vertex -1.54071 -0.500607 20
      vertex -3.05 -1.76092 20
      vertex -1.49668 -0.619946 20
    endloop
  endfacet
  facet normal 0 0 1
    outer loop
      vertex -1.49668 -0.619946 20
      vertex -3.05 -1.76092 20
      vertex -1.44343 -0.735464 20
    endloop
  endfacet
  facet normal 0 0 1
    outer loop
      vertex -0.846447 -1.38128 20
      vertex -3.05 -1.76092 20
      vertex 0 -3.52184 20
    endloop
  endfacet
  facet normal 1 -0 0
    outer loop
      vertex 3.05 -1.76092 20
      vertex 3.05 1.76092 0
      vertex 3.05 1.76092 20
    endloop
  endfacet
  facet normal 1 0 0
    outer loop
      vertex 3.05 1.76092 0
      vertex 3.05 -1.76092 20
      vertex 3.05 -1.76092 0
    endloop
  endfacet
  facet normal 0 0 -1
    outer loop
      vertex 3.05 -1.76092 0
      vertex 1.62 0 0
      vertex 3.05 1.76092 0
    endloop
  endfacet
  facet normal 0 0 -1
    outer loop
      vertex 3.05 -1.76092 0
      vertex 1.61501 -0.127103 0
      vertex 1.62 0 0
    endloop
  endfacet
  facet normal 0 0 -1
    outer loop
      vertex 3.05 -1.76092 0
      vertex 1.60005 -0.253424 0
      vertex 1.61501 -0.127103 0
    endloop
  endfacet
  facet normal 0 0 -1
    outer loop
      vertex 3.05 -1.76092 0
      vertex 1.57524 -0.378181 0
      vertex 1.60005 -0.253424 0
    endloop
  endfacet
  facet normal 0 0 -1
    outer loop
      vertex 3.05 -1.76092 0
      vertex 1.54071 -0.500607 0
      vertex 1.57524 -0.378181 0
    endloop
  endfacet
  facet normal 0 0 -1
    outer loop
      vertex 3.05 -1.76092 0
      vertex 1.49668 -0.619946 0
      vertex 1.54071 -0.500607 0
    endloop
  endfacet
  facet normal 0 0 -1
    outer loop
      vertex 3.05 -1.76092 0
      vertex 1.44343 -0.735464 0
      vertex 1.49668 -0.619946 0
    endloop
  endfacet
  facet normal 0 0 -1
    outer loop
      vertex 3.05 -1.76092 0
      vertex 1.38128 -0.846447 0
      vertex 1.44343 -0.735464 0
    endloop
  endfacet
  facet normal 0 0 -1
    outer loop
      vertex 3.05 -1.76092 0
      vertex 1.31061 -0.952211 0
      vertex 1.38128 -0.846447 0
    endloop
  endfacet
  facet normal 0 0 -1
    outer loop
      vertex 3.05 -1.76092 0
      vertex 1.23186 -1.0521 0
      vertex 1.31061 -0.952211 0
    endloop
  endfacet
  facet normal 0 0 -1
    outer loop
      vertex 3.05 -1.76092 0
      vertex 1.14551 -1.14551 0
      vertex 1.23186 -1.0521 0
    endloop
  endfacet
  facet normal 0 0 -1
    outer loop
      vertex 3.05 -1.76092 0
      vertex 1.0521 -1.23186 0
      vertex 1.14551 -1.14551 0
    endloop
  endfacet
  facet normal 0 0 -1
    outer loop
      vertex 3.05 -1.76092 0
      vertex 0.952211 -1.31061 0
      vertex 1.0521 -1.23186 0
    endloop
  endfacet
  facet normal 0 0 -1
    outer loop
      vertex 3.05 -1.76092 0
      vertex 0.846447 -1.38128 0
      vertex 0.952211 -1.31061 0
    endloop
  endfacet
  facet normal 0 0 -1
    outer loop
      vertex 0 -3.52184 0
      vertex 0.846447 -1.38128 0
      vertex 3.05 -1.76092 0
    endloop
  endfacet
  facet normal 0 0 -1
    outer loop
      vertex 0.846447 -1.38128 0
      vertex 0 -3.52184 0
      vertex 0.735464 -1.44343 0
    endloop
  endfacet
  facet normal 0 0 -1
    outer loop
      vertex 0.735464 -1.44343 0
      vertex 0 -3.52184 0
      vertex 0.619946 -1.49668 0
    endloop
  endfacet
  facet normal 0 0 -1
    outer loop
      vertex 0.619946 -1.49668 0
      vertex 0 -3.52184 0
      vertex 0.500607 -1.54071 0
    endloop
  endfacet
  facet normal 0 0 -1
    outer loop
      vertex 0.500607 -1.54071 0
      vertex 0 -3.52184 0
      vertex 0.378181 -1.57524 0
    endloop
  endfacet
  facet normal 0 0 -1
    outer loop
      vertex 0.378181 -1.57524 0
      vertex 0 -3.52184 0
      vertex 0.253424 -1.60005 0
    endloop
  endfacet
  facet normal 0 0 -1
    outer loop
      vertex 0.253424 -1.60005 0
      vertex 0 -3.52184 0
      vertex 0.127103 -1.61501 0
    endloop
  endfacet
  facet normal 0 0 -1
    outer loop
      vertex 0 -3.52184 0
      vertex 0 -1.62 0
      vertex 0.127103 -1.61501 0
    endloop
  endfacet
  facet normal 0 0 -1
    outer loop
      vertex 0 -3.52184 0
      vertex -0.127103 -1.61501 0
      vertex 0 -1.62 0
    endloop
  endfacet
  facet normal 0 0 -1
    outer loop
      vertex 0 -3.52184 0
      vertex -0.253424 -1.60005 0
      vertex -0.127103 -1.61501 0
    endloop
  endfacet
  facet normal 0 0 -1
    outer loop
      vertex 0 -3.52184 0
      vertex -0.378181 -1.57524 0
      vertex -0.253424 -1.60005 0
    endloop
  endfacet
  facet normal 0 0 -1
    outer loop
      vertex 0 -3.52184 0
      vertex -0.500607 -1.54071 0
      vertex -0.378181 -1.57524 0
    endloop
  endfacet
  facet normal 0 0 -1
    outer loop
      vertex 0 -3.52184 0
      vertex -0.619946 -1.49668 0
      vertex -0.500607 -1.54071 0
    endloop
  endfacet
  facet normal 0 0 -1
    outer loop
      vertex 0 -3.52184 0
      vertex -0.735464 -1.44343 0
      vertex -0.619946 -1.49668 0
    endloop
  endfacet
  facet normal 0 0 -1
    outer loop
      vertex 0 -3.52184 0
      vertex -0.846447 -1.38128 0
      vertex -0.735464 -1.44343 0
    endloop
  endfacet
  facet normal 0 0 -1
    outer loop
      vertex -3.05 -1.76092 0
      vertex -0.846447 -1.38128 0
      vertex 0 -3.52184 0
    endloop
  endfacet
  facet normal -0 0 -1
    outer loop
      vertex -0.846447 -1.38128 0
      vertex -3.05 -1.76092 0
      vertex -0.952211 -1.31061 0
    endloop
  endfacet
  facet normal -0 0 -1
    outer loop
      vertex -0.952211 -1.31061 0
      vertex -3.05 -1.76092 0
      vertex -1.0521 -1.23186 0
    endloop
  endfacet
  facet normal -0 0 -1
    outer loop
      vertex -1.0521 -1.23186 0
      vertex -3.05 -1.76092 0
      vertex -1.14551 -1.14551 0
    endloop
  endfacet
  facet normal -0 0 -1
    outer loop
      vertex -1.14551 -1.14551 0
      vertex -3.05 -1.76092 0
      vertex -1.23186 -1.0521 0
    endloop
  endfacet
  facet normal -0 0 -1
    outer loop
      vertex -1.23186 -1.0521 0
      vertex -3.05 -1.76092 0
      vertex -1.31061 -0.952211 0
    endloop
  endfacet
  facet normal -0 0 -1
    outer loop
      vertex -1.31061 -0.952211 0
      vertex -3.05 -1.76092 0
      vertex -1.38128 -0.846447 0
    endloop
  endfacet
  facet normal -0 0 -1
    outer loop
      vertex -1.61501 -0.127103 0
      vertex -3.05 -1.76092 0
      vertex -1.62 0 0
    endloop
  endfacet
  facet normal -0 0 -1
    outer loop
      vertex -1.60005 -0.253424 0
      vertex -3.05 -1.76092 0
      vertex -1.61501 -0.127103 0
    endloop
  endfacet
  facet normal -0 0 -1
    outer loop
      vertex -1.57524 -0.378181 0
      vertex -3.05 -1.76092 0
      vertex -1.60005 -0.253424 0
    endloop
  endfacet
  facet normal -0 0 -1
    outer loop
      vertex -1.54071 -0.500607 0
      vertex -3.05 -1.76092 0
      vertex -1.57524 -0.378181 0
    endloop
  endfacet
  facet normal -0 0 -1
    outer loop
      vertex -1.49668 -0.619946 0
      vertex -3.05 -1.76092 0
      vertex -1.54071 -0.500607 0
    endloop
  endfacet
  facet normal -0 0 -1
    outer loop
      vertex -1.44343 -0.735464 0
      vertex -3.05 -1.76092 0
      vertex -1.49668 -0.619946 0
    endloop
  endfacet
  facet normal -0 0 -1
    outer loop
      vertex -1.38128 -0.846447 0
      vertex -3.05 -1.76092 0
      vertex -1.44343 -0.735464 0
    endloop
  endfacet
  facet normal 0 0 -1
    outer loop
      vertex 1.61501 0.127103 0
      vertex 3.05 1.76092 0
      vertex 1.62 0 0
    endloop
  endfacet
  facet normal 0 0 -1
    outer loop
      vertex 1.60005 0.253424 0
      vertex 3.05 1.76092 0
      vertex 1.61501 0.127103 0
    endloop
  endfacet
  facet normal 0 0 -1
    outer loop
      vertex 1.57524 0.378181 0
      vertex 3.05 1.76092 0
      vertex 1.60005 0.253424 0
    endloop
  endfacet
  facet normal 0 0 -1
    outer loop
      vertex 1.54071 0.500607 0
      vertex 3.05 1.76092 0
      vertex 1.57524 0.378181 0
    endloop
  endfacet
  facet normal 0 0 -1
    outer loop
      vertex 1.49668 0.619946 0
      vertex 3.05 1.76092 0
      vertex 1.54071 0.500607 0
    endloop
  endfacet
  facet normal 0 0 -1
    outer loop
      vertex 1.44343 0.735464 0
      vertex 3.05 1.76092 0
      vertex 1.49668 0.619946 0
    endloop
  endfacet
  facet normal 0 0 -1
    outer loop
      vertex 1.38128 0.846447 0
      vertex 3.05 1.76092 0
      vertex 1.44343 0.735464 0
    endloop
  endfacet
  facet normal 0 0 -1
    outer loop
      vertex 1.31061 0.952211 0
      vertex 3.05 1.76092 0
      vertex 1.38128 0.846447 0
    endloop
  endfacet
  facet normal 0 0 -1
    outer loop
      vertex 1.23186 1.0521 0
      vertex 3.05 1.76092 0
      vertex 1.31061 0.952211 0
    endloop
  endfacet
  facet normal 0 0 -1
    outer loop
      vertex 1.14551 1.14551 0
      vertex 3.05 1.76092 0
      vertex 1.23186 1.0521 0
    endloop
  endfacet
  facet normal 0 0 -1
    outer loop
      vertex 1.0521 1.23186 0
      vertex 3.05 1.76092 0
      vertex 1.14551 1.14551 0
    endloop
  endfacet
  facet normal 0 0 -1
    outer loop
      vertex 0.952211 1.31061 0
      vertex 3.05 1.76092 0
      vertex 1.0521 1.23186 0
    endloop
  endfacet
  facet normal 0 0 -1
    outer loop
      vertex 0.846447 1.38128 0
      vertex 3.05 1.76092 0
      vertex 0.952211 1.31061 0
    endloop
  endfacet
  facet normal 0 0 -1
    outer loop
      vertex 0 3.52184 0
      vertex 0.846447 1.38128 0
      vertex 0.735464 1.44343 0
    endloop
  endfacet
  facet normal 0 0 -1
    outer loop
      vertex 0 3.52184 0
      vertex 0.735464 1.44343 0
      vertex 0.619946 1.49668 0
    endloop
  endfacet
  facet normal 0 0 -1
    outer loop
      vertex 0 3.52184 0
      vertex 0.619946 1.49668 0
      vertex 0.500607 1.54071 0
    endloop
  endfacet
  facet normal 0 0 -1
    outer loop
      vertex 0 3.52184 0
      vertex 0.500607 1.54071 0
      vertex 0.378181 1.57524 0
    endloop
  endfacet
  facet normal 0 0 -1
    outer loop
      vertex 0 3.52184 0
      vertex 0.378181 1.57524 0
      vertex 0.253424 1.60005 0
    endloop
  endfacet
  facet normal 0 0 -1
    outer loop
      vertex 0 3.52184 0
      vertex 0.253424 1.60005 0
      vertex 0.127103 1.61501 0
    endloop
  endfacet
  facet normal 0 0 -1
    outer loop
      vertex 0 3.52184 0
      vertex 0.127103 1.61501 0
      vertex 0 1.62 0
    endloop
  endfacet
  facet normal 0 0 -1
    outer loop
      vertex 0.846447 1.38128 0
      vertex 0 3.52184 0
      vertex 3.05 1.76092 0
    endloop
  endfacet
  facet normal 0 0 -1
    outer loop
      vertex -0.127103 1.61501 0
      vertex 0 3.52184 0
      vertex 0 1.62 0
    endloop
  endfacet
  facet normal 0 0 -1
    outer loop
      vertex -0.253424 1.60005 0
      vertex 0 3.52184 0
      vertex -0.127103 1.61501 0
    endloop
  endfacet
  facet normal 0 0 -1
    outer loop
      vertex -0.378181 1.57524 0
      vertex 0 3.52184 0
      vertex -0.253424 1.60005 0
    endloop
  endfacet
  facet normal 0 0 -1
    outer loop
      vertex -0.500607 1.54071 0
      vertex 0 3.52184 0
      vertex -0.378181 1.57524 0
    endloop
  endfacet
  facet normal 0 0 -1
    outer loop
      vertex -0.619946 1.49668 0
      vertex 0 3.52184 0
      vertex -0.500607 1.54071 0
    endloop
  endfacet
  facet normal 0 0 -1
    outer loop
      vertex -0.735464 1.44343 0
      vertex 0 3.52184 0
      vertex -0.619946 1.49668 0
    endloop
  endfacet
  facet normal 0 0 -1
    outer loop
      vertex -0.846447 1.38128 0
      vertex 0 3.52184 0
      vertex -0.735464 1.44343 0
    endloop
  endfacet
  facet normal 0 0 -1
    outer loop
      vertex -3.05 1.76092 0
      vertex -0.846447 1.38128 0
      vertex -0.952211 1.31061 0
    endloop
  endfacet
  facet normal 0 0 -1
    outer loop
      vertex -3.05 1.76092 0
      vertex -0.952211 1.31061 0
      vertex -1.0521 1.23186 0
    endloop
  endfacet
  facet normal 0 0 -1
    outer loop
      vertex -3.05 1.76092 0
      vertex -1.0521 1.23186 0
      vertex -1.14551 1.14551 0
    endloop
  endfacet
  facet normal 0 0 -1
    outer loop
      vertex -3.05 1.76092 0
      vertex -1.14551 1.14551 0
      vertex -1.23186 1.0521 0
    endloop
  endfacet
  facet normal 0 0 -1
    outer loop
      vertex -3.05 1.76092 0
      vertex -1.23186 1.0521 0
      vertex -1.31061 0.952211 0
    endloop
  endfacet
  facet normal 0 0 -1
    outer loop
      vertex -3.05 1.76092 0
      vertex -1.31061 0.952211 0
      vertex -1.38128 0.846447 0
    endloop
  endfacet
  facet normal 0 0 -1
    outer loop
      vertex -3.05 1.76092 0
      vertex -1.38128 0.846447 0
      vertex -1.44343 0.735464 0
    endloop
  endfacet
  facet normal 0 0 -1
    outer loop
      vertex -3.05 1.76092 0
      vertex -1.62 0 0
      vertex -3.05 -1.76092 0
    endloop
  endfacet
  facet normal 0 0 -1
    outer loop
      vertex -1.62 0 0
      vertex -3.05 1.76092 0
      vertex -1.61501 0.127103 0
    endloop
  endfacet
  facet normal 0 0 -1
    outer loop
      vertex -1.61501 0.127103 0
      vertex -3.05 1.76092 0
      vertex -1.60005 0.253424 0
    endloop
  endfacet
  facet normal 0 0 -1
    outer loop
      vertex -1.60005 0.253424 0
      vertex -3.05 1.76092 0
      vertex -1.57524 0.378181 0
    endloop
  endfacet
  facet normal 0 0 -1
    outer loop
      vertex -1.57524 0.378181 0
      vertex -3.05 1.76092 0
      vertex -1.54071 0.500607 0
    endloop
  endfacet
  facet normal 0 0 -1
    outer loop
      vertex -1.54071 0.500607 0
      vertex -3.05 1.76092 0
      vertex -1.49668 0.619946 0
    endloop
  endfacet
  facet normal 0 0 -1
    outer loop
      vertex -1.49668 0.619946 0
      vertex -3.05 1.76092 0
      vertex -1.44343 0.735464 0
    endloop
  endfacet
  facet normal 0 0 -1
    outer loop
      vertex -0.846447 1.38128 0
      vertex -3.05 1.76092 0
      vertex 0 3.52184 0
    endloop
  endfacet
  facet normal 0.5 -0.866025 0
    outer loop
      vertex 0 -3.52184 0
      vertex 3.05 -1.76092 20
      vertex 0 -3.52184 20
    endloop
  endfacet
  facet normal 0.5 -0.866025 0
    outer loop
      vertex 3.05 -1.76092 20
      vertex 0 -3.52184 0
      vertex 3.05 -1.76092 0
    endloop
  endfacet
  facet normal -0.5 -0.866025 0
    outer loop
      vertex -3.05 -1.76092 0
      vertex 0 -3.52184 20
      vertex -3.05 -1.76092 20
    endloop
  endfacet
  facet normal -0.5 -0.866025 -0
    outer loop
      vertex 0 -3.52184 20
      vertex -3.05 -1.76092 0
      vertex 0 -3.52184 0
    endloop
  endfacet
  facet normal -0.99923 -0.0392293 0
    outer loop
      vertex 1.62 0 0
      vertex 1.61501 0.127103 20
      vertex 1.61501 0.127103 0
    endloop
  endfacet
  facet normal -0.99923 -0.0392293 0
    outer loop
      vertex 1.61501 0.127103 20
      vertex 1.62 0 0
      vertex 1.62 0 20
    endloop
  endfacet
  facet normal 0.99923 -0.0392293 0
    outer loop
      vertex -1.62 0 20
      vertex -1.61501 0.127103 0
      vertex -1.61501 0.127103 20
    endloop
  endfacet
  facet normal 0.99923 -0.0392293 0
    outer loop
      vertex -1.61501 0.127103 0
      vertex -1.62 0 20
      vertex -1.62 0 0
    endloop
  endfacet
  facet normal -0.0392293 -0.99923 0
    outer loop
      vertex 0 1.62 0
      vertex 0.127103 1.61501 20
      vertex 0 1.62 20
    endloop
  endfacet
  facet normal -0.0392293 -0.99923 -0
    outer loop
      vertex 0.127103 1.61501 20
      vertex 0 1.62 0
      vertex 0.127103 1.61501 0
    endloop
  endfacet
  facet normal 0.0392293 0.99923 -0
    outer loop
      vertex 0 -1.62 0
      vertex -0.127103 -1.61501 20
      vertex 0 -1.62 20
    endloop
  endfacet
  facet normal 0.0392293 0.99923 0
    outer loop
      vertex -0.127103 -1.61501 20
      vertex 0 -1.62 0
      vertex -0.127103 -1.61501 0
    endloop
  endfacet
  facet normal 0.734312 0.678812 0
    outer loop
      vertex -1.14551 -1.14551 20
      vertex -1.23186 -1.0521 0
      vertex -1.23186 -1.0521 20
    endloop
  endfacet
  facet normal 0.734312 0.678812 0
    outer loop
      vertex -1.23186 -1.0521 0
      vertex -1.14551 -1.14551 20
      vertex -1.14551 -1.14551 0
    endloop
  endfacet
  facet normal -0.734312 -0.678812 0
    outer loop
      vertex 1.23186 1.0521 0
      vertex 1.14551 1.14551 20
      vertex 1.14551 1.14551 0
    endloop
  endfacet
  facet normal -0.734312 -0.678812 0
    outer loop
      vertex 1.14551 1.14551 20
      vertex 1.23186 1.0521 0
      vertex 1.23186 1.0521 20
    endloop
  endfacet
  facet normal 0.678812 -0.734312 0
    outer loop
      vertex -1.14551 1.14551 0
      vertex -1.0521 1.23186 20
      vertex -1.14551 1.14551 20
    endloop
  endfacet
  facet normal 0.678812 -0.734312 0
    outer loop
      vertex -1.0521 1.23186 20
      vertex -1.14551 1.14551 0
      vertex -1.0521 1.23186 0
    endloop
  endfacet
  facet normal 0.346141 -0.938182 0
    outer loop
      vertex -0.619946 1.49668 0
      vertex -0.500607 1.54071 20
      vertex -0.619946 1.49668 20
    endloop
  endfacet
  facet normal 0.346141 -0.938182 0
    outer loop
      vertex -0.500607 1.54071 20
      vertex -0.619946 1.49668 0
      vertex -0.500607 1.54071 0
    endloop
  endfacet
  facet normal -0.908157 -0.41863 0
    outer loop
      vertex 1.49668 0.619946 0
      vertex 1.44343 0.735464 20
      vertex 1.44343 0.735464 0
    endloop
  endfacet
  facet normal -0.908157 -0.41863 0
    outer loop
      vertex 1.44343 0.735464 20
      vertex 1.49668 0.619946 0
      vertex 1.49668 0.619946 20
    endloop
  endfacet
  facet normal -0.41863 -0.908157 0
    outer loop
      vertex 0.619946 1.49668 0
      vertex 0.735464 1.44343 20
      vertex 0.619946 1.49668 20
    endloop
  endfacet
  facet normal -0.41863 -0.908157 -0
    outer loop
      vertex 0.735464 1.44343 20
      vertex 0.619946 1.49668 0
      vertex 0.735464 1.44343 0
    endloop
  endfacet
  facet normal -0.619113 -0.785302 0
    outer loop
      vertex 0.952211 1.31061 0
      vertex 1.0521 1.23186 20
      vertex 0.952211 1.31061 20
    endloop
  endfacet
  facet normal -0.619113 -0.785302 -0
    outer loop
      vertex 1.0521 1.23186 20
      vertex 0.952211 1.31061 0
      vertex 1.0521 1.23186 0
    endloop
  endfacet
  facet normal 0.908157 -0.41863 0
    outer loop
      vertex -1.49668 0.619946 20
      vertex -1.44343 0.735464 0
      vertex -1.44343 0.735464 20
    endloop
  endfacet
  facet normal 0.908157 -0.41863 0
    outer loop
      vertex -1.44343 0.735464 0
      vertex -1.49668 0.619946 20
      vertex -1.49668 0.619946 0
    endloop
  endfacet
  facet normal 0.195047 -0.980794 0
    outer loop
      vertex -0.378181 1.57524 0
      vertex -0.253424 1.60005 20
      vertex -0.378181 1.57524 20
    endloop
  endfacet
  facet normal 0.195047 -0.980794 0
    outer loop
      vertex -0.253424 1.60005 20
      vertex -0.378181 1.57524 0
      vertex -0.253424 1.60005 0
    endloop
  endfacet
  facet normal -0.938182 0.346141 0
    outer loop
      vertex 1.49668 -0.619946 0
      vertex 1.54071 -0.500607 20
      vertex 1.54071 -0.500607 0
    endloop
  endfacet
  facet normal -0.938182 0.346141 0
    outer loop
      vertex 1.54071 -0.500607 20
      vertex 1.49668 -0.619946 0
      vertex 1.49668 -0.619946 20
    endloop
  endfacet
  facet normal -0.962451 0.271457 0
    outer loop
      vertex 1.54071 -0.500607 0
      vertex 1.57524 -0.378181 20
      vertex 1.57524 -0.378181 0
    endloop
  endfacet
  facet normal -0.962451 0.271457 0
    outer loop
      vertex 1.57524 -0.378181 20
      vertex 1.54071 -0.500607 0
      vertex 1.54071 -0.500607 20
    endloop
  endfacet
  facet normal -0.980794 -0.195047 0
    outer loop
      vertex 1.60005 0.253424 0
      vertex 1.57524 0.378181 20
      vertex 1.57524 0.378181 0
    endloop
  endfacet
  facet normal -0.980794 -0.195047 0
    outer loop
      vertex 1.57524 0.378181 20
      vertex 1.60005 0.253424 0
      vertex 1.60005 0.253424 20
    endloop
  endfacet
  facet normal -0.99306 -0.117607 0
    outer loop
      vertex 1.61501 0.127103 0
      vertex 1.60005 0.253424 20
      vertex 1.60005 0.253424 0
    endloop
  endfacet
  facet normal -0.99306 -0.117607 0
    outer loop
      vertex 1.60005 0.253424 20
      vertex 1.61501 0.127103 0
      vertex 1.61501 0.127103 20
    endloop
  endfacet
  facet normal -0.962451 -0.271457 0
    outer loop
      vertex 1.57524 0.378181 0
      vertex 1.54071 0.500607 20
      vertex 1.54071 0.500607 0
    endloop
  endfacet
  facet normal -0.962451 -0.271457 0
    outer loop
      vertex 1.54071 0.500607 20
      vertex 1.57524 0.378181 0
      vertex 1.57524 0.378181 20
    endloop
  endfacet
  facet normal -0.831467 -0.555574 0
    outer loop
      vertex 1.38128 0.846447 0
      vertex 1.31061 0.952211 20
      vertex 1.31061 0.952211 0
    endloop
  endfacet
  facet normal -0.831467 -0.555574 0
    outer loop
      vertex 1.31061 0.952211 20
      vertex 1.38128 0.846447 0
      vertex 1.38128 0.846447 20
    endloop
  endfacet
  facet normal -0.785302 -0.619113 0
    outer loop
      vertex 1.31061 0.952211 0
      vertex 1.23186 1.0521 20
      vertex 1.23186 1.0521 0
    endloop
  endfacet
  facet normal -0.785302 -0.619113 0
    outer loop
      vertex 1.23186 1.0521 20
      vertex 1.31061 0.952211 0
      vertex 1.31061 0.952211 20
    endloop
  endfacet
  facet normal -0.872508 -0.4886 0
    outer loop
      vertex 1.44343 0.735464 0
      vertex 1.38128 0.846447 20
      vertex 1.38128 0.846447 0
    endloop
  endfacet
  facet normal -0.872508 -0.4886 0
    outer loop
      vertex 1.38128 0.846447 20
      vertex 1.44343 0.735464 0
      vertex 1.44343 0.735464 20
    endloop
  endfacet
  facet normal -0.271457 -0.962451 0
    outer loop
      vertex 0.378181 1.57524 0
      vertex 0.500607 1.54071 20
      vertex 0.378181 1.57524 20
    endloop
  endfacet
  facet normal -0.271457 -0.962451 -0
    outer loop
      vertex 0.500607 1.54071 20
      vertex 0.378181 1.57524 0
      vertex 0.500607 1.54071 0
    endloop
  endfacet
  facet normal -0.346141 -0.938182 0
    outer loop
      vertex 0.500607 1.54071 0
      vertex 0.619946 1.49668 20
      vertex 0.500607 1.54071 20
    endloop
  endfacet
  facet normal -0.346141 -0.938182 -0
    outer loop
      vertex 0.619946 1.49668 20
      vertex 0.500607 1.54071 0
      vertex 0.619946 1.49668 0
    endloop
  endfacet
  facet normal -0.195047 -0.980794 0
    outer loop
      vertex 0.253424 1.60005 0
      vertex 0.378181 1.57524 20
      vertex 0.253424 1.60005 20
    endloop
  endfacet
  facet normal -0.195047 -0.980794 -0
    outer loop
      vertex 0.378181 1.57524 20
      vertex 0.253424 1.60005 0
      vertex 0.378181 1.57524 0
    endloop
  endfacet
  facet normal -0.678812 -0.734312 0
    outer loop
      vertex 1.0521 1.23186 0
      vertex 1.14551 1.14551 20
      vertex 1.0521 1.23186 20
    endloop
  endfacet
  facet normal -0.678812 -0.734312 -0
    outer loop
      vertex 1.14551 1.14551 20
      vertex 1.0521 1.23186 0
      vertex 1.14551 1.14551 0
    endloop
  endfacet
  facet normal 0.962451 -0.271457 0
    outer loop
      vertex -1.57524 0.378181 20
      vertex -1.54071 0.500607 0
      vertex -1.54071 0.500607 20
    endloop
  endfacet
  facet normal 0.962451 -0.271457 0
    outer loop
      vertex -1.54071 0.500607 0
      vertex -1.57524 0.378181 20
      vertex -1.57524 0.378181 0
    endloop
  endfacet
  facet normal 0.785302 -0.619113 0
    outer loop
      vertex -1.31061 0.952211 20
      vertex -1.23186 1.0521 0
      vertex -1.23186 1.0521 20
    endloop
  endfacet
  facet normal 0.785302 -0.619113 0
    outer loop
      vertex -1.23186 1.0521 0
      vertex -1.31061 0.952211 20
      vertex -1.31061 0.952211 0
    endloop
  endfacet
  facet normal 0.734312 -0.678812 0
    outer loop
      vertex -1.23186 1.0521 20
      vertex -1.14551 1.14551 0
      vertex -1.14551 1.14551 20
    endloop
  endfacet
  facet normal 0.734312 -0.678812 0
    outer loop
      vertex -1.14551 1.14551 0
      vertex -1.23186 1.0521 20
      vertex -1.23186 1.0521 0
    endloop
  endfacet
  facet normal 0.938182 -0.346141 0
    outer loop
      vertex -1.54071 0.500607 20
      vertex -1.49668 0.619946 0
      vertex -1.49668 0.619946 20
    endloop
  endfacet
  facet normal 0.938182 -0.346141 0
    outer loop
      vertex -1.49668 0.619946 0
      vertex -1.54071 0.500607 20
      vertex -1.54071 0.500607 0
    endloop
  endfacet
  facet normal 0.980794 -0.195047 0
    outer loop
      vertex -1.60005 0.253424 20
      vertex -1.57524 0.378181 0
      vertex -1.57524 0.378181 20
    endloop
  endfacet
  facet normal 0.980794 -0.195047 0
    outer loop
      vertex -1.57524 0.378181 0
      vertex -1.60005 0.253424 20
      vertex -1.60005 0.253424 0
    endloop
  endfacet
  facet normal 0.555574 -0.831467 0
    outer loop
      vertex -0.952211 1.31061 0
      vertex -0.846447 1.38128 20
      vertex -0.952211 1.31061 20
    endloop
  endfacet
  facet normal 0.555574 -0.831467 0
    outer loop
      vertex -0.846447 1.38128 20
      vertex -0.952211 1.31061 0
      vertex -0.846447 1.38128 0
    endloop
  endfacet
  facet normal 0.41863 -0.908157 0
    outer loop
      vertex -0.735464 1.44343 0
      vertex -0.619946 1.49668 20
      vertex -0.735464 1.44343 20
    endloop
  endfacet
  facet normal 0.41863 -0.908157 0
    outer loop
      vertex -0.619946 1.49668 20
      vertex -0.735464 1.44343 0
      vertex -0.619946 1.49668 0
    endloop
  endfacet
  facet normal 0.619113 -0.785302 0
    outer loop
      vertex -1.0521 1.23186 0
      vertex -0.952211 1.31061 20
      vertex -1.0521 1.23186 20
    endloop
  endfacet
  facet normal 0.619113 -0.785302 0
    outer loop
      vertex -0.952211 1.31061 20
      vertex -1.0521 1.23186 0
      vertex -0.952211 1.31061 0
    endloop
  endfacet
  facet normal 0.271457 -0.962451 0
    outer loop
      vertex -0.500607 1.54071 0
      vertex -0.378181 1.57524 20
      vertex -0.500607 1.54071 20
    endloop
  endfacet
  facet normal 0.271457 -0.962451 0
    outer loop
      vertex -0.378181 1.57524 20
      vertex -0.500607 1.54071 0
      vertex -0.378181 1.57524 0
    endloop
  endfacet
  facet normal 0.117607 -0.99306 0
    outer loop
      vertex -0.253424 1.60005 0
      vertex -0.127103 1.61501 20
      vertex -0.253424 1.60005 20
    endloop
  endfacet
  facet normal 0.117607 -0.99306 0
    outer loop
      vertex -0.127103 1.61501 20
      vertex -0.253424 1.60005 0
      vertex -0.127103 1.61501 0
    endloop
  endfacet
  facet normal -0.271457 0.962451 0
    outer loop
      vertex 0.500607 -1.54071 0
      vertex 0.378181 -1.57524 20
      vertex 0.500607 -1.54071 20
    endloop
  endfacet
  facet normal -0.271457 0.962451 0
    outer loop
      vertex 0.378181 -1.57524 20
      vertex 0.500607 -1.54071 0
      vertex 0.378181 -1.57524 0
    endloop
  endfacet
  facet normal -0.619113 0.785302 0
    outer loop
      vertex 1.0521 -1.23186 0
      vertex 0.952211 -1.31061 20
      vertex 1.0521 -1.23186 20
    endloop
  endfacet
  facet normal -0.619113 0.785302 0
    outer loop
      vertex 0.952211 -1.31061 20
      vertex 1.0521 -1.23186 0
      vertex 0.952211 -1.31061 0
    endloop
  endfacet
  facet normal -0.41863 0.908157 0
    outer loop
      vertex 0.735464 -1.44343 0
      vertex 0.619946 -1.49668 20
      vertex 0.735464 -1.44343 20
    endloop
  endfacet
  facet normal -0.41863 0.908157 0
    outer loop
      vertex 0.619946 -1.49668 20
      vertex 0.735464 -1.44343 0
      vertex 0.619946 -1.49668 0
    endloop
  endfacet
  facet normal -0.872508 0.4886 0
    outer loop
      vertex 1.38128 -0.846447 0
      vertex 1.44343 -0.735464 20
      vertex 1.44343 -0.735464 0
    endloop
  endfacet
  facet normal -0.872508 0.4886 0
    outer loop
      vertex 1.44343 -0.735464 20
      vertex 1.38128 -0.846447 0
      vertex 1.38128 -0.846447 20
    endloop
  endfacet
  facet normal 0.678812 0.734312 -0
    outer loop
      vertex -1.0521 -1.23186 0
      vertex -1.14551 -1.14551 20
      vertex -1.0521 -1.23186 20
    endloop
  endfacet
  facet normal 0.678812 0.734312 0
    outer loop
      vertex -1.14551 -1.14551 20
      vertex -1.0521 -1.23186 0
      vertex -1.14551 -1.14551 0
    endloop
  endfacet
  facet normal 0.346141 0.938182 -0
    outer loop
      vertex -0.500607 -1.54071 0
      vertex -0.619946 -1.49668 20
      vertex -0.500607 -1.54071 20
    endloop
  endfacet
  facet normal 0.346141 0.938182 0
    outer loop
      vertex -0.619946 -1.49668 20
      vertex -0.500607 -1.54071 0
      vertex -0.619946 -1.49668 0
    endloop
  endfacet
  facet normal 0.195047 0.980794 -0
    outer loop
      vertex -0.253424 -1.60005 0
      vertex -0.378181 -1.57524 20
      vertex -0.253424 -1.60005 20
    endloop
  endfacet
  facet normal 0.195047 0.980794 0
    outer loop
      vertex -0.378181 -1.57524 20
      vertex -0.253424 -1.60005 0
      vertex -0.378181 -1.57524 0
    endloop
  endfacet
  facet normal 0.831467 0.555574 0
    outer loop
      vertex -1.31061 -0.952211 20
      vertex -1.38128 -0.846447 0
      vertex -1.38128 -0.846447 20
    endloop
  endfacet
  facet normal 0.831467 0.555574 0
    outer loop
      vertex -1.38128 -0.846447 0
      vertex -1.31061 -0.952211 20
      vertex -1.31061 -0.952211 0
    endloop
  endfacet
  facet normal 0.908157 0.41863 0
    outer loop
      vertex -1.44343 -0.735464 20
      vertex -1.49668 -0.619946 0
      vertex -1.49668 -0.619946 20
    endloop
  endfacet
  facet normal 0.908157 0.41863 0
    outer loop
      vertex -1.49668 -0.619946 0
      vertex -1.44343 -0.735464 20
      vertex -1.44343 -0.735464 0
    endloop
  endfacet
  facet normal 0.785302 0.619113 0
    outer loop
      vertex -1.23186 -1.0521 20
      vertex -1.31061 -0.952211 0
      vertex -1.31061 -0.952211 20
    endloop
  endfacet
  facet normal 0.785302 0.619113 0
    outer loop
      vertex -1.31061 -0.952211 0
      vertex -1.23186 -1.0521 20
      vertex -1.23186 -1.0521 0
    endloop
  endfacet
  facet normal 0.962451 0.271457 0
    outer loop
      vertex -1.54071 -0.500607 20
      vertex -1.57524 -0.378181 0
      vertex -1.57524 -0.378181 20
    endloop
  endfacet
  facet normal 0.962451 0.271457 0
    outer loop
      vertex -1.57524 -0.378181 0
      vertex -1.54071 -0.500607 20
      vertex -1.54071 -0.500607 0
    endloop
  endfacet
  facet normal 0.938182 0.346141 0
    outer loop
      vertex -1.49668 -0.619946 20
      vertex -1.54071 -0.500607 0
      vertex -1.54071 -0.500607 20
    endloop
  endfacet
  facet normal 0.938182 0.346141 0
    outer loop
      vertex -1.54071 -0.500607 0
      vertex -1.49668 -0.619946 20
      vertex -1.49668 -0.619946 0
    endloop
  endfacet
  facet normal -0.938182 -0.346141 0
    outer loop
      vertex 1.54071 0.500607 0
      vertex 1.49668 0.619946 20
      vertex 1.49668 0.619946 0
    endloop
  endfacet
  facet normal -0.938182 -0.346141 0
    outer loop
      vertex 1.49668 0.619946 20
      vertex 1.54071 0.500607 0
      vertex 1.54071 0.500607 20
    endloop
  endfacet
  facet normal -0.117607 -0.99306 0
    outer loop
      vertex 0.127103 1.61501 0
      vertex 0.253424 1.60005 20
      vertex 0.127103 1.61501 20
    endloop
  endfacet
  facet normal -0.117607 -0.99306 -0
    outer loop
      vertex 0.253424 1.60005 20
      vertex 0.127103 1.61501 0
      vertex 0.253424 1.60005 0
    endloop
  endfacet
  facet normal -0.4886 -0.872508 0
    outer loop
      vertex 0.735464 1.44343 0
      vertex 0.846447 1.38128 20
      vertex 0.735464 1.44343 20
    endloop
  endfacet
  facet normal -0.4886 -0.872508 -0
    outer loop
      vertex 0.846447 1.38128 20
      vertex 0.735464 1.44343 0
      vertex 0.846447 1.38128 0
    endloop
  endfacet
  facet normal 0.872508 -0.4886 0
    outer loop
      vertex -1.44343 0.735464 20
      vertex -1.38128 0.846447 0
      vertex -1.38128 0.846447 20
    endloop
  endfacet
  facet normal 0.872508 -0.4886 0
    outer loop
      vertex -1.38128 0.846447 0
      vertex -1.44343 0.735464 20
      vertex -1.44343 0.735464 0
    endloop
  endfacet
  facet normal 0.831467 -0.555574 0
    outer loop
      vertex -1.38128 0.846447 20
      vertex -1.31061 0.952211 0
      vertex -1.31061 0.952211 20
    endloop
  endfacet
  facet normal 0.831467 -0.555574 0
    outer loop
      vertex -1.31061 0.952211 0
      vertex -1.38128 0.846447 20
      vertex -1.38128 0.846447 0
    endloop
  endfacet
  facet normal 0.99306 -0.117607 0
    outer loop
      vertex -1.61501 0.127103 20
      vertex -1.60005 0.253424 0
      vertex -1.60005 0.253424 20
    endloop
  endfacet
  facet normal 0.99306 -0.117607 0
    outer loop
      vertex -1.60005 0.253424 0
      vertex -1.61501 0.127103 20
      vertex -1.61501 0.127103 0
    endloop
  endfacet
  facet normal 0.4886 -0.872508 0
    outer loop
      vertex -0.846447 1.38128 0
      vertex -0.735464 1.44343 20
      vertex -0.846447 1.38128 20
    endloop
  endfacet
  facet normal 0.4886 -0.872508 0
    outer loop
      vertex -0.735464 1.44343 20
      vertex -0.846447 1.38128 0
      vertex -0.735464 1.44343 0
    endloop
  endfacet
  facet normal 0.0392293 -0.99923 0
    outer loop
      vertex -0.127103 1.61501 0
      vertex 0 1.62 20
      vertex -0.127103 1.61501 20
    endloop
  endfacet
  facet normal 0.0392293 -0.99923 0
    outer loop
      vertex 0 1.62 20
      vertex -0.127103 1.61501 0
      vertex 0 1.62 0
    endloop
  endfacet
  facet normal -0.0392293 0.99923 0
    outer loop
      vertex 0.127103 -1.61501 0
      vertex 0 -1.62 20
      vertex 0.127103 -1.61501 20
    endloop
  endfacet
  facet normal -0.0392293 0.99923 0
    outer loop
      vertex 0 -1.62 20
      vertex 0.127103 -1.61501 0
      vertex 0 -1.62 0
    endloop
  endfacet
  facet normal -0.195047 0.980794 0
    outer loop
      vertex 0.378181 -1.57524 0
      vertex 0.253424 -1.60005 20
      vertex 0.378181 -1.57524 20
    endloop
  endfacet
  facet normal -0.195047 0.980794 0
    outer loop
      vertex 0.253424 -1.60005 20
      vertex 0.378181 -1.57524 0
      vertex 0.253424 -1.60005 0
    endloop
  endfacet
  facet normal -0.346141 0.938182 0
    outer loop
      vertex 0.619946 -1.49668 0
      vertex 0.500607 -1.54071 20
      vertex 0.619946 -1.49668 20
    endloop
  endfacet
  facet normal -0.346141 0.938182 0
    outer loop
      vertex 0.500607 -1.54071 20
      vertex 0.619946 -1.49668 0
      vertex 0.500607 -1.54071 0
    endloop
  endfacet
  facet normal -0.678812 0.734312 0
    outer loop
      vertex 1.14551 -1.14551 0
      vertex 1.0521 -1.23186 20
      vertex 1.14551 -1.14551 20
    endloop
  endfacet
  facet normal -0.678812 0.734312 0
    outer loop
      vertex 1.0521 -1.23186 20
      vertex 1.14551 -1.14551 0
      vertex 1.0521 -1.23186 0
    endloop
  endfacet
  facet normal -0.4886 0.872508 0
    outer loop
      vertex 0.846447 -1.38128 0
      vertex 0.735464 -1.44343 20
      vertex 0.846447 -1.38128 20
    endloop
  endfacet
  facet normal -0.4886 0.872508 0
    outer loop
      vertex 0.735464 -1.44343 20
      vertex 0.846447 -1.38128 0
      vertex 0.735464 -1.44343 0
    endloop
  endfacet
  facet normal -0.555574 0.831467 0
    outer loop
      vertex 0.952211 -1.31061 0
      vertex 0.846447 -1.38128 20
      vertex 0.952211 -1.31061 20
    endloop
  endfacet
  facet normal -0.555574 0.831467 0
    outer loop
      vertex 0.846447 -1.38128 20
      vertex 0.952211 -1.31061 0
      vertex 0.846447 -1.38128 0
    endloop
  endfacet
  facet normal -0.734312 0.678812 0
    outer loop
      vertex 1.14551 -1.14551 0
      vertex 1.23186 -1.0521 20
      vertex 1.23186 -1.0521 0
    endloop
  endfacet
  facet normal -0.734312 0.678812 0
    outer loop
      vertex 1.23186 -1.0521 20
      vertex 1.14551 -1.14551 0
      vertex 1.14551 -1.14551 20
    endloop
  endfacet
  facet normal -0.831467 0.555574 0
    outer loop
      vertex 1.31061 -0.952211 0
      vertex 1.38128 -0.846447 20
      vertex 1.38128 -0.846447 0
    endloop
  endfacet
  facet normal -0.831467 0.555574 0
    outer loop
      vertex 1.38128 -0.846447 20
      vertex 1.31061 -0.952211 0
      vertex 1.31061 -0.952211 20
    endloop
  endfacet
  facet normal -0.908157 0.41863 0
    outer loop
      vertex 1.44343 -0.735464 0
      vertex 1.49668 -0.619946 20
      vertex 1.49668 -0.619946 0
    endloop
  endfacet
  facet normal -0.908157 0.41863 0
    outer loop
      vertex 1.49668 -0.619946 20
      vertex 1.44343 -0.735464 0
      vertex 1.44343 -0.735464 20
    endloop
  endfacet
  facet normal -0.980794 0.195047 0
    outer loop
      vertex 1.57524 -0.378181 0
      vertex 1.60005 -0.253424 20
      vertex 1.60005 -0.253424 0
    endloop
  endfacet
  facet normal -0.980794 0.195047 0
    outer loop
      vertex 1.60005 -0.253424 20
      vertex 1.57524 -0.378181 0
      vertex 1.57524 -0.378181 20
    endloop
  endfacet
  facet normal -0.99306 0.117607 0
    outer loop
      vertex 1.60005 -0.253424 0
      vertex 1.61501 -0.127103 20
      vertex 1.61501 -0.127103 0
    endloop
  endfacet
  facet normal -0.99306 0.117607 0
    outer loop
      vertex 1.61501 -0.127103 20
      vertex 1.60005 -0.253424 0
      vertex 1.60005 -0.253424 20
    endloop
  endfacet
  facet normal 0.619113 0.785302 -0
    outer loop
      vertex -0.952211 -1.31061 0
      vertex -1.0521 -1.23186 20
      vertex -0.952211 -1.31061 20
    endloop
  endfacet
  facet normal 0.619113 0.785302 0
    outer loop
      vertex -1.0521 -1.23186 20
      vertex -0.952211 -1.31061 0
      vertex -1.0521 -1.23186 0
    endloop
  endfacet
  facet normal 0.555574 0.831467 -0
    outer loop
      vertex -0.846447 -1.38128 0
      vertex -0.952211 -1.31061 20
      vertex -0.846447 -1.38128 20
    endloop
  endfacet
  facet normal 0.555574 0.831467 0
    outer loop
      vertex -0.952211 -1.31061 20
      vertex -0.846447 -1.38128 0
      vertex -0.952211 -1.31061 0
    endloop
  endfacet
  facet normal 0.41863 0.908157 -0
    outer loop
      vertex -0.619946 -1.49668 0
      vertex -0.735464 -1.44343 20
      vertex -0.619946 -1.49668 20
    endloop
  endfacet
  facet normal 0.41863 0.908157 0
    outer loop
      vertex -0.735464 -1.44343 20
      vertex -0.619946 -1.49668 0
      vertex -0.735464 -1.44343 0
    endloop
  endfacet
  facet normal 0.4886 0.872508 -0
    outer loop
      vertex -0.735464 -1.44343 0
      vertex -0.846447 -1.38128 20
      vertex -0.735464 -1.44343 20
    endloop
  endfacet
  facet normal 0.4886 0.872508 0
    outer loop
      vertex -0.846447 -1.38128 20
      vertex -0.735464 -1.44343 0
      vertex -0.846447 -1.38128 0
    endloop
  endfacet
  facet normal 0.271457 0.962451 -0
    outer loop
      vertex -0.378181 -1.57524 0
      vertex -0.500607 -1.54071 20
      vertex -0.378181 -1.57524 20
    endloop
  endfacet
  facet normal 0.271457 0.962451 0
    outer loop
      vertex -0.500607 -1.54071 20
      vertex -0.378181 -1.57524 0
      vertex -0.500607 -1.54071 0
    endloop
  endfacet
  facet normal 0.117607 0.99306 -0
    outer loop
      vertex -0.127103 -1.61501 0
      vertex -0.253424 -1.60005 20
      vertex -0.127103 -1.61501 20
    endloop
  endfacet
  facet normal 0.117607 0.99306 0
    outer loop
      vertex -0.253424 -1.60005 20
      vertex -0.127103 -1.61501 0
      vertex -0.253424 -1.60005 0
    endloop
  endfacet
  facet normal 0.872508 0.4886 0
    outer loop
      vertex -1.38128 -0.846447 20
      vertex -1.44343 -0.735464 0
      vertex -1.44343 -0.735464 20
    endloop
  endfacet
  facet normal 0.872508 0.4886 0
    outer loop
      vertex -1.44343 -0.735464 0
      vertex -1.38128 -0.846447 20
      vertex -1.38128 -0.846447 0
    endloop
  endfacet
  facet normal 0.980794 0.195047 0
    outer loop
      vertex -1.57524 -0.378181 20
      vertex -1.60005 -0.253424 0
      vertex -1.60005 -0.253424 20
    endloop
  endfacet
  facet normal 0.980794 0.195047 0
    outer loop
      vertex -1.60005 -0.253424 0
      vertex -1.57524 -0.378181 20
      vertex -1.57524 -0.378181 0
    endloop
  endfacet
  facet normal 0.99923 0.0392293 0
    outer loop
      vertex -1.61501 -0.127103 20
      vertex -1.62 0 0
      vertex -1.62 0 20
    endloop
  endfacet
  facet normal 0.99923 0.0392293 0
    outer loop
      vertex -1.62 0 0
      vertex -1.61501 -0.127103 20
      vertex -1.61501 -0.127103 0
    endloop
  endfacet
  facet normal -0.555574 -0.831467 0
    outer loop
      vertex 0.846447 1.38128 0
      vertex 0.952211 1.31061 20
      vertex 0.846447 1.38128 20
    endloop
  endfacet
  facet normal -0.555574 -0.831467 -0
    outer loop
      vertex 0.952211 1.31061 20
      vertex 0.846447 1.38128 0
      vertex 0.952211 1.31061 0
    endloop
  endfacet
  facet normal -0.117607 0.99306 0
    outer loop
      vertex 0.253424 -1.60005 0
      vertex 0.127103 -1.61501 20
      vertex 0.253424 -1.60005 20
    endloop
  endfacet
  facet normal -0.117607 0.99306 0
    outer loop
      vertex 0.127103 -1.61501 20
      vertex 0.253424 -1.60005 0
      vertex 0.127103 -1.61501 0
    endloop
  endfacet
  facet normal -0.785302 0.619113 0
    outer loop
      vertex 1.23186 -1.0521 0
      vertex 1.31061 -0.952211 20
      vertex 1.31061 -0.952211 0
    endloop
  endfacet
  facet normal -0.785302 0.619113 0
    outer loop
      vertex 1.31061 -0.952211 20
      vertex 1.23186 -1.0521 0
      vertex 1.23186 -1.0521 20
    endloop
  endfacet
  facet normal -0.99923 0.0392293 0
    outer loop
      vertex 1.61501 -0.127103 0
      vertex 1.62 0 20
      vertex 1.62 0 0
    endloop
  endfacet
  facet normal -0.99923 0.0392293 0
    outer loop
      vertex 1.62 0 20
      vertex 1.61501 -0.127103 0
      vertex 1.61501 -0.127103 20
    endloop
  endfacet
  facet normal 0.99306 0.117607 0
    outer loop
      vertex -1.60005 -0.253424 20
      vertex -1.61501 -0.127103 0
      vertex -1.61501 -0.127103 20
    endloop
  endfacet
  facet normal 0.99306 0.117607 0
    outer loop
      vertex -1.61501 -0.127103 0
      vertex -1.60005 -0.253424 20
      vertex -1.60005 -0.253424 0
    endloop
  endfacet
endsolid OpenSCAD_Model
